<svg width="595" height="609" viewBox="0 0 595 609" fill="none" xmlns="http://www.w3.org/2000/svg">
<rect width="595" height="609" fill="#F5F5F5"/>
<path d="M0 0H595V609H0V0Z" fill="white"/>
<path d="M345.19 334.787C336.52 330.887 324.87 337.537 315.02 339.147C303.585 341.242 291.865 341.242 280.43 339.147C270.59 337.537 258.94 330.897 250.27 334.787C245.87 336.787 244.52 341.627 246.27 347.417C247.571 351.427 249.841 355.055 252.88 357.977C259.14 363.91 266.488 368.576 274.52 371.717C281.856 374.812 289.738 376.407 297.7 376.407C305.662 376.407 313.544 374.812 320.88 371.717C328.907 368.571 336.251 363.906 342.51 357.977C345.557 355.07 347.841 351.457 349.16 347.457C350.94 341.627 349.59 336.767 345.19 334.787ZM429.55 261.077C429.55 260.937 429.55 260.787 429.55 260.647C429.55 260.217 429.49 259.787 429.45 259.357V259.257C429.45 258.777 429.34 258.257 429.28 257.827V257.667C429.22 257.237 429.15 256.817 429.07 256.387V256.237C428.98 255.807 428.89 255.377 428.79 254.947C428.791 254.924 428.791 254.901 428.79 254.877C426.01 243.197 416.9 233.717 404.79 231.487C388.44 228.487 372.79 239.877 369.89 256.937C369.83 257.331 369.78 257.721 369.74 258.107C368.74 267.407 374.84 276.037 383.74 277.687C386.964 278.289 390.294 277.909 393.3 276.597C394.508 276.071 395.844 275.916 397.141 276.151C398.437 276.386 399.634 277.001 400.58 277.917C402.965 280.234 405.981 281.796 409.25 282.407C418.58 284.127 427.48 277.637 429.13 267.897C429.375 266.418 429.522 264.925 429.57 263.427C429.57 263.247 429.57 263.057 429.57 262.877C429.57 262.697 429.57 262.637 429.57 262.527C429.57 262.417 429.57 262.247 429.57 262.117C429.57 261.767 429.56 261.457 429.55 261.077ZM297.73 235.537C264.73 235.537 244.2 247.177 244.2 265.907C244.2 287.747 265.2 317.557 297.73 317.557C329.73 317.557 351.26 287.417 351.26 265.907C351.26 246.887 331.25 235.537 297.73 235.537ZM225.62 256.937C222.72 239.877 207.07 228.457 190.72 231.487C178.66 233.717 169.55 243.197 166.77 254.877V254.947C166.67 255.377 166.58 255.807 166.49 256.237V256.387C166.41 256.817 166.34 257.237 166.28 257.667C166.275 257.72 166.275 257.774 166.28 257.827C166.21 258.297 166.15 258.777 166.1 259.257V259.357C166.1 259.797 166.03 260.227 166 260.657C166 260.797 166 260.937 166 261.077C166 261.427 166 261.767 166 262.077C166 262.207 166 262.347 166 262.487C166 262.627 166 262.717 166 262.837C166 262.957 166 263.207 166 263.387C166.048 264.885 166.195 266.378 166.44 267.857C168.1 277.597 177 284.087 186.32 282.367C189.589 281.756 192.605 280.194 194.99 277.877C195.936 276.961 197.133 276.346 198.429 276.111C199.726 275.876 201.062 276.031 202.27 276.557C205.276 277.869 208.606 278.249 211.83 277.647C220.83 275.997 226.83 267.367 225.88 258.067C225.767 257.707 225.68 257.331 225.62 256.937Z" fill="#5b59f3"/>
</svg>
